<svg width="1440" height="848" viewBox="0 0 1440 848" fill="none" xmlns="http://www.w3.org/2000/svg">
<mask id="mask0_675_11" style="mask-type:alpha" maskUnits="userSpaceOnUse" x="0" y="0" width="1440" height="848">
<path d="M1440 848L0 848C2.89513e-05 516.835 4.51832e-05 331.164 7.41345e-05 -0.000125889C388.5 402.5 862.553 -111.688 1440 159.5L1440 848Z" fill="#C4C4C4"/>
</mask>
<g mask="url(#mask0_675_11)">
<mask id="mask1_675_11" style="mask-type:alpha" maskUnits="userSpaceOnUse" x="0" y="0" width="1440" height="848">
<path d="M1440 848L0 848C2.89513e-05 516.835 4.51832e-05 331.164 7.41345e-05 -0.000125889C388.5 402.5 862.553 -111.688 1440 159.5L1440 848Z" fill="#489DD7"/>
</mask>
<g mask="url(#mask1_675_11)">
<path d="M1440 848L0 848C2.89513e-05 516.835 4.51832e-05 331.164 7.41345e-05 -0.000125889C388.5 402.5 862.553 -111.688 1440 159.5L1440 848Z" fill="#090F3F"/>
<mask id="mask2_675_11" style="mask-type:alpha" maskUnits="userSpaceOnUse" x="-111" y="-578" width="1030" height="907">
<path opacity="0.5" d="M-74.1546 -68.6951C-109.122 -92.8561 -120.459 -139.368 -100.529 -176.906L88.3834 -532.734C110.082 -573.604 160.809 -589.149 201.684 -567.453L873.713 -210.764C920.219 -186.079 932.704 -125.126 899.637 -84.1513L591.899 297.224C564.352 331.355 515.137 338.478 479.047 313.538L-74.1546 -68.6951Z" fill="url(#paint0_linear_675_11)"/>
</mask>
<g mask="url(#mask2_675_11)">
<path opacity="0.7" d="M-74.9329 -69.655C-109.9 -93.816 -121.237 -140.328 -101.308 -177.866L87.6051 -533.694C109.304 -574.564 160.03 -590.109 200.906 -568.413L872.935 -211.724C919.441 -187.039 931.926 -126.086 898.858 -85.1112L591.121 296.264C563.574 330.395 514.358 337.518 478.269 312.578L-74.9329 -69.655Z" fill="#FCC22C"/>
</g>
<mask id="mask3_675_11" style="mask-type:alpha" maskUnits="userSpaceOnUse" x="-364" y="353" width="763" height="942">
<path d="M397.486 1088.22C404.205 1130.18 378.438 1170.53 337.538 1182.08L-50.1571 1291.6C-94.6883 1304.18 -140.99 1278.28 -153.575 1233.75L-360.483 501.599C-374.8 450.932 -339.394 399.771 -286.927 395.333L201.377 354.005C245.082 350.311 284.255 380.945 291.187 424.262L397.486 1088.22Z" fill="#CF1257"/>
</mask>
<g mask="url(#mask3_675_11)">
<path d="M397.331 1089.44C404.05 1131.41 378.283 1171.76 337.382 1183.31L-50.3126 1292.83C-94.8439 1305.41 -141.145 1279.5 -153.73 1234.97L-360.639 502.825C-374.956 452.157 -339.549 400.996 -287.083 396.559L201.222 355.23C244.927 351.536 284.099 382.17 291.031 425.488L397.331 1089.44Z" fill="url(#paint1_linear_675_11)"/>
</g>
<mask id="mask4_675_11" style="mask-type:alpha" maskUnits="userSpaceOnUse" x="514" y="512" width="929" height="652">
<path d="M1351.45 566.943C1393.81 570.383 1426.89 604.995 1428.4 647.468L1442.71 1050.08C1444.35 1096.33 1408.19 1135.15 1361.95 1136.8L601.608 1163.91C548.99 1165.79 507.701 1119.24 515.851 1067.22L591.671 583.074C598.462 539.742 637.523 508.966 681.248 512.52L1351.45 566.943Z" fill="#CF1257"/>
</mask>
<g mask="url(#mask4_675_11)">
<path d="M1352.6 567.384C1394.97 570.824 1428.04 605.436 1429.55 647.91L1443.86 1050.52C1445.51 1096.77 1409.35 1135.59 1363.1 1137.24L602.762 1164.35C550.144 1166.23 508.855 1119.68 517.004 1067.67L592.825 583.515C599.616 540.184 638.677 509.407 682.401 512.961L1352.6 567.384Z" fill="url(#paint2_linear_675_11)"/>
</g>
<mask id="mask5_675_11" style="mask-type:alpha" maskUnits="userSpaceOnUse" x="739" y="365" width="1029" height="915">
<path d="M1733.26 776.158C1767.69 801.083 1778 847.833 1757.25 884.923L1560.54 1236.51C1537.95 1276.89 1486.9 1291.31 1446.51 1268.72L782.495 897.323C736.544 871.619 725.404 810.406 759.365 770.169L1075.43 395.662C1103.72 362.146 1153.08 356.108 1188.61 381.837L1733.26 776.158Z" fill="#CF1257"/>
</mask>
<g mask="url(#mask5_675_11)">
<path d="M1734.02 777.134C1768.44 802.06 1778.75 848.809 1758 885.9L1561.3 1237.48C1538.71 1277.86 1487.65 1292.29 1447.26 1269.7L783.251 898.299C737.3 872.596 726.161 811.383 760.122 771.146L1076.18 396.639C1104.47 363.122 1153.83 357.085 1189.37 382.814L1734.02 777.134Z" fill="url(#paint3_linear_675_11)"/>
</g>
<mask id="mask6_675_11" style="mask-type:alpha" maskUnits="userSpaceOnUse" x="893" y="-368" width="652" height="929">
<path opacity="0.5" d="M947.877 -276.083C951.317 -318.446 985.929 -351.52 1028.4 -353.029L1431.02 -367.34C1477.26 -368.984 1516.08 -332.826 1517.73 -286.579L1544.85 473.76C1546.72 526.378 1500.18 567.666 1448.16 559.517L964.008 483.696C920.676 476.905 889.9 437.845 893.454 394.12L947.877 -276.083Z" fill="url(#paint4_linear_675_11)"/>
</mask>
<g mask="url(#mask6_675_11)">
<path opacity="0.7" d="M948.319 -277.237C951.759 -319.6 986.371 -352.674 1028.84 -354.183L1431.46 -368.494C1477.7 -370.138 1516.53 -333.98 1518.18 -287.732L1545.29 472.606C1547.16 525.224 1500.62 566.513 1448.6 558.363L964.45 482.542C921.119 475.751 890.342 436.691 893.896 392.966L948.319 -277.237Z" fill="#FCC22C"/>
</g>
</g>
</g>
<defs>
<linearGradient id="paint0_linear_675_11" x1="528.737" y1="257.476" x2="244.178" y2="-627.84" gradientUnits="userSpaceOnUse">
<stop stop-color="#FCC22C"/>
<stop offset="1" stop-color="#FCC22C" stop-opacity="0"/>
</linearGradient>
<linearGradient id="paint1_linear_675_11" x1="376.568" y1="332.898" x2="-78.6014" y2="655.648" gradientUnits="userSpaceOnUse">
<stop stop-color="#CF1257"/>
<stop offset="1" stop-color="#CF1257" stop-opacity="0"/>
</linearGradient>
<linearGradient id="paint2_linear_675_11" x1="612.774" y1="407.883" x2="818.193" y2="926.679" gradientUnits="userSpaceOnUse">
<stop stop-color="#CF1257"/>
<stop offset="1" stop-color="#CF1257" stop-opacity="0"/>
</linearGradient>
<linearGradient id="paint3_linear_675_11" x1="1184.38" y1="256.859" x2="1090.74" y2="806.931" gradientUnits="userSpaceOnUse">
<stop stop-color="#CF1257"/>
<stop offset="1" stop-color="#CF1257" stop-opacity="0"/>
</linearGradient>
<linearGradient id="paint4_linear_675_11" x1="966.85" y1="409.122" x2="1591.28" y2="-279.972" gradientUnits="userSpaceOnUse">
<stop stop-color="#FCC22C"/>
<stop offset="1" stop-color="#FCC22C" stop-opacity="0"/>
</linearGradient>
</defs>
</svg>
