<svg width="1421" height="739" viewBox="0 0 1421 739" fill="none" xmlns="http://www.w3.org/2000/svg">
<mask id="mask0_4_554" style="mask-type:alpha" maskUnits="userSpaceOnUse" x="0" y="0" width="1421" height="739">
<path d="M1308 688C1420 663 1465.08 391.174 1364.67 229C1264.25 66.8261 1178.17 20.3487 1178.17 20.3487C1130.17 6.84849 1031.67 -10.151 960.114 7.68979C960.114 7.68979 133.641 196.675 70.0816 221.706C6.52232 246.736 0.500213 354 0.500086 416.5C0.499958 479 29.0815 562.303 70.0816 629C111.082 695.697 295.5 738.5 619 738.5C942.5 738.5 1196 713 1308 688Z" fill="#FCC22C"/>
</mask>
<g mask="url(#mask0_4_554)">
<path d="M1580 752.654L-10 752.654C-9.99997 421.489 -9.99995 235.818 -9.99993 -95.3463C418.969 307.154 942.402 -207.034 1580 64.1538L1580 752.654Z" fill="#090F3F"/>
<mask id="mask1_4_554" style="mask-type:alpha" maskUnits="userSpaceOnUse" x="647" y="271" width="1000" height="787">
<path opacity="0.5" d="M1591.2 502.394C1631.23 516.681 1654.22 558.674 1644.69 600.091L1554.31 992.689C1543.93 1037.78 1498.95 1065.93 1453.85 1055.55L712.405 884.949C661.095 873.141 633.26 817.497 654.595 769.359L853.139 321.331C870.914 281.233 916.609 261.615 957.924 276.364L1591.2 502.394Z" fill="url(#paint0_linear_4_554)"/>
</mask>
<g mask="url(#mask1_4_554)">
<path opacity="0.7" d="M1592.2 503.12C1632.23 517.407 1655.22 559.4 1645.69 600.817L1555.31 993.414C1544.93 1038.51 1499.95 1066.65 1454.85 1056.28L713.405 885.674C662.095 873.866 634.26 818.222 655.595 770.085L854.139 322.056C871.914 281.958 917.609 262.34 958.924 277.09L1592.2 503.12Z" fill="#FCC22C"/>
</g>
<mask id="mask2_4_554" style="mask-type:alpha" maskUnits="userSpaceOnUse" x="828" y="-818" width="905" height="989">
<path d="M836.204 -493.027C818.852 -531.826 833.299 -577.468 869.815 -599.213L1215.95 -805.342C1255.71 -829.017 1307.14 -815.981 1330.82 -776.223L1720.17 -122.576C1747.12 -77.3402 1726.16 -18.7585 1676.63 -0.892838L1215.66 165.41C1174.4 180.29 1128.63 160.838 1110.73 120.791L836.204 -493.027Z" fill="#CF1257"/>
</mask>
<g mask="url(#mask2_4_554)">
<path d="M836.037 -494.251C818.685 -533.05 833.132 -578.692 869.648 -600.437L1215.79 -806.566C1255.55 -830.242 1306.97 -817.205 1330.66 -777.447L1720.01 -123.8C1746.95 -78.5643 1725.99 -19.9826 1676.46 -2.11696L1215.49 164.186C1174.23 179.066 1128.47 159.614 1110.56 119.566L836.037 -494.251Z" fill="url(#paint1_linear_4_554)"/>
</g>
<mask id="mask3_4_554" style="mask-type:alpha" maskUnits="userSpaceOnUse" x="-34" y="-432" width="924" height="662">
<path d="M100.806 229.846C58.3046 230.166 22.2991 198.616 17.0381 156.442L-32.8311 -243.326C-38.5588 -289.244 -5.97709 -331.116 39.9432 -336.849L794.903 -431.114C847.148 -437.635 892.392 -394.926 888.876 -342.39L856.18 146.568C853.249 190.331 817.064 224.442 773.196 224.77L100.806 229.846Z" fill="#CF1257"/>
</mask>
<g mask="url(#mask3_4_554)">
<path d="M99.6179 229.507C57.1164 229.828 21.1108 198.277 15.8499 156.103L-34.0193 -243.665C-39.7471 -289.583 -7.16532 -331.454 38.755 -337.187L793.714 -431.452C845.96 -437.974 891.204 -395.265 887.688 -342.729L854.992 146.23C852.06 189.993 815.876 224.104 772.008 224.432L99.6179 229.507Z" fill="url(#paint2_linear_4_554)"/>
</g>
<mask id="mask4_4_554" style="mask-type:alpha" maskUnits="userSpaceOnUse" x="-428" y="-399" width="1005" height="799">
<path d="M-373.288 154.122C-412.993 138.957 -435.051 96.4683 -424.607 55.2711L-325.604 -335.241C-314.232 -380.096 -268.649 -407.243 -223.79 -395.875L513.722 -208.99C564.759 -196.055 591.363 -139.812 568.973 -92.156L360.612 351.393C341.959 391.089 295.843 409.696 254.862 394.041L-373.288 154.122Z" fill="#CF1257"/>
</mask>
<g mask="url(#mask4_4_554)">
<path d="M-374.272 153.375C-413.977 138.209 -436.035 95.7208 -425.591 54.5236L-326.588 -335.989C-315.216 -380.844 -269.633 -407.99 -224.774 -396.623L512.738 -209.738C563.776 -196.803 590.379 -140.559 567.989 -92.9035L359.628 350.645C340.975 390.342 294.859 408.949 253.879 393.293L-374.272 153.375Z" fill="url(#paint3_linear_4_554)"/>
</g>
<mask id="mask5_4_554" style="mask-type:alpha" maskUnits="userSpaceOnUse" x="-117" y="237" width="777" height="948">
<path opacity="0.5" d="M657.674 967.237C665.316 1009.05 640.443 1049.95 599.808 1062.4L214.618 1180.43C170.374 1193.99 123.514 1169.11 109.951 1124.86L-113.027 397.451C-128.457 347.111 -94.185 295.183 -41.8293 289.591L445.447 237.521C489.06 232.866 528.898 262.63 536.782 305.784L657.674 967.237Z" fill="url(#paint4_linear_4_554)"/>
</mask>
<g mask="url(#mask5_4_554)">
<path opacity="0.7" d="M657.546 968.465C665.187 1010.28 640.315 1051.18 599.679 1063.63L214.489 1181.66C170.246 1195.21 123.385 1170.34 109.823 1126.09L-113.156 398.679C-128.585 348.34 -94.3134 296.411 -41.9577 290.82L445.319 238.75C488.932 234.094 528.769 263.858 536.653 307.013L657.546 968.465Z" fill="#FCC22C"/>
</g>
</g>
<defs>
<linearGradient id="paint0_linear_4_554" x1="924.437" y1="343.377" x2="1428.44" y2="1124.88" gradientUnits="userSpaceOnUse">
<stop stop-color="#FCC22C"/>
<stop offset="1" stop-color="#FCC22C" stop-opacity="0"/>
</linearGradient>
<linearGradient id="paint1_linear_4_554" x1="1051.9" y1="231.14" x2="1408.03" y2="-198.419" gradientUnits="userSpaceOnUse">
<stop stop-color="#CF1257"/>
<stop offset="1" stop-color="#CF1257" stop-opacity="0"/>
</linearGradient>
<linearGradient id="paint2_linear_4_554" x1="180.962" y1="-458.886" x2="734.969" y2="273.273" gradientUnits="userSpaceOnUse">
<stop stop-color="#489DD7"/>
<stop offset="1" stop-color="#489DD7" stop-opacity="0"/>
</linearGradient>
<linearGradient id="paint3_linear_4_554" x1="-48.0338" y1="-458.239" x2="201.608" y2="425.31" gradientUnits="userSpaceOnUse">
<stop stop-color="#489DD7"/>
<stop offset="1" stop-color="#489DD7" stop-opacity="0"/>
</linearGradient>
<linearGradient id="paint4_linear_4_554" x1="462.003" y1="310.29" x2="37.2043" y2="1137.52" gradientUnits="userSpaceOnUse">
<stop stop-color="#FCC22C"/>
<stop offset="1" stop-color="#FCC22C" stop-opacity="0"/>
</linearGradient>
</defs>
</svg>
